<svg width="16" height="17" viewBox="0 0 16 17" fill="none" xmlns="http://www.w3.org/2000/svg">
<path fill-rule="evenodd" clip-rule="evenodd" d="M13.3962 15.0653H3.0445C1.87477 15.0653 1.14285 14.2257 1.14285 13.1734C1.14285 12.8491 1.22562 12.5168 1.40883 12.207L6.59201 3.16913C6.948 2.53565 7.5784 2.21436 8.22097 2.21436C8.86234 2.21436 9.48365 2.53324 9.84754 3.16913L15.0307 12.2058C15.2042 12.5113 15.2967 12.8491 15.2967 13.1734C15.2967 14.2257 14.5648 15.0653 13.3962 15.0653ZM7.59879 9.8579C7.61147 10.255 7.83462 10.4788 8.22742 10.4788C8.60256 10.4788 8.8245 10.2605 8.83719 9.85545L8.9425 6.4905C8.95519 6.08135 8.64261 5.78885 8.22073 5.78885C7.78787 5.78885 7.49176 6.07586 7.5045 6.48501L7.59879 9.8579ZM7.40513 12.0212C7.40513 12.4573 7.77861 12.786 8.22742 12.786C8.67073 12.786 9.04187 12.4628 9.04187 12.0212C9.04187 11.5766 8.67742 11.2522 8.22742 11.2522C7.77313 11.2522 7.40513 11.5809 7.40513 12.0212Z" fill="#FF5622"/>
</svg>
