<svg width="20" height="20" viewBox="0 0 20 20" fill="none" xmlns="http://www.w3.org/2000/svg">
<path d="M15 10.8333V15.8333C15 16.7542 14.2542 17.5 13.3333 17.5H4.16667C3.24583 17.5 2.5 16.7542 2.5 15.8333V6.66667C2.5 5.74583 3.24583 5 4.16667 5H7.5" stroke="#F1EBF4" stroke-opacity="0.8" stroke-width="1.5" stroke-linecap="round" stroke-linejoin="round"/>
<path fill-rule="evenodd" clip-rule="evenodd" d="M6.6665 12.5L9.2915 12.1759C9.47567 12.1534 9.64734 12.0692 9.779 11.9384L16.1382 5.5792C16.8423 4.87504 16.8423 3.73337 16.1382 3.02837V3.02837C15.434 2.3242 14.2923 2.3242 13.5873 3.02837L7.28734 9.32837C7.15984 9.45587 7.07734 9.62087 7.0515 9.80004L6.6665 12.5Z" stroke="#F1EBF4" stroke-opacity="0.8" stroke-width="1.5" stroke-linecap="round" stroke-linejoin="round"/>
</svg>
