<svg width="16" height="17" viewBox="0 0 16 17" fill="none" xmlns="http://www.w3.org/2000/svg">
<path fill-rule="evenodd" clip-rule="evenodd" d="M8.30967 15.1139C8.13984 15.201 7.9652 15.2472 7.84721 15.2472C7.73042 15.2472 7.56006 15.2065 7.38475 15.1139C3.60529 13.0419 2.28516 12.1002 2.28516 9.69729V4.7145C2.28516 3.93558 2.59132 3.64884 3.24234 3.38018C3.97761 3.08353 6.43989 2.19129 7.1631 1.95973C7.37819 1.89531 7.62475 1.8479 7.84721 1.8479C8.07087 1.8479 8.31744 1.88982 8.53681 1.95973C9.25453 2.20228 11.718 3.07804 12.4533 3.38018C13.1098 3.65553 13.4093 3.93558 13.4093 4.7145V9.69729C13.4093 12.1002 12.1465 13.1377 8.30967 15.1139ZM7.2265 8.79853C7.23922 9.19682 7.45685 9.4139 7.84966 9.4139C8.23029 9.4139 8.45223 9.2023 8.46492 8.79608L8.56469 5.42565C8.57743 5.0177 8.26914 4.7252 7.84297 4.7252C7.41011 4.7252 7.114 5.01101 7.12672 5.42016L7.2265 8.79853ZM7.02734 10.9576C7.02734 11.3936 7.40087 11.7211 7.84966 11.7211C8.29846 11.7211 8.66834 11.3992 8.66834 10.9576C8.66834 10.5184 8.30394 10.1885 7.84966 10.1885C7.39538 10.1885 7.02734 10.5215 7.02734 10.9576Z" fill="white"/>
</svg>
